Coordinates
version=1
nRows=9
nColumns=63
inDegrees=yes

Units are S.I. units (second, meters, Newtons, ...)
If the header above contains a line with 'inDegrees', this indicates whether rotational values are in degrees (yes) or radians (no).

endheader
time	pelvis_tilt	pelvis_list	pelvis_rotation	pelvis_tx	pelvis_ty	pelvis_tz	hip_flexion_r	hip_adduction_r	hip_rotation_r	knee_angle_r	knee_angle_r_beta	ankle_angle_r	subtalar_angle_r	mtp_angle_r	hip_flexion_l	hip_adduction_l	hip_rotation_l	knee_angle_l	knee_angle_l_beta	ankle_angle_l	subtalar_angle_l	mtp_angle_l	L5_S1_Flex_Ext	L5_S1_Lat_Bending	L5_S1_axial_rotation	L4_L5_Flex_Ext	L4_L5_Lat_Bending	L4_L5_axial_rotation	L3_L4_Flex_Ext	L3_L4_Lat_Bending	L3_L4_axial_rotation	L2_L3_Flex_Ext	L2_L3_Lat_Bending	L2_L3_axial_rotation	L1_L2_Flex_Ext	L1_L2_Lat_Bending	L1_L2_axial_rotation	L1_T12_Flex_Ext	L1_T12_Lat_Bending	L1_T12_axial_rotation	Abs_r3	Abs_r2	Abs_r1	Abs_t1	Abs_t2	neck_flexion	neck_bending	neck_rotation	arm_flex_r	arm_add_r	arm_rot_r	elbow_flex_r	pro_sup_r	wrist_flex_r	wrist_dev_r	arm_flex_l	arm_add_l	arm_rot_l	elbow_flex_l	pro_sup_l	wrist_flex_l	wrist_dev_l
     12.06700000	    -53.86471035	      9.19122904	      4.39811909	     -0.36067859	      0.98903406	      0.04572390	     91.10094822	     -7.52599885	      8.40878028	     56.89398340	      0.99298733	    -11.47030291	     -8.11392947	      0.00000000	    129.57695605	    -10.47941069	     -7.35187296	    102.36968853	      1.78668812	      3.82214745	      2.30677912	      0.00000000	     -0.09208530	     -1.72068048	     -0.49578677	     -0.17101161	     -2.28850503	     -0.52677344	     -0.15128694	     -4.18366251	     -0.52677344	     -0.10524429	     -4.18366251	     -0.43381342	     -0.08551041	     -3.50881162	     -0.40282675	     -0.05261754	     -2.66533406	     -0.37184008	     -0.65775608	    -19.46468167	     -2.75741728	      0.00000000	      0.00000000	     -0.00000000	      0.00000000	      0.00000000	     64.20993523	     -6.06175892	    -11.48189960	     43.28539041	     45.00391796	      0.00000000	      5.00000014	     77.30417721	     -8.00368495	     14.51014472	     35.17690232	     53.11467508	      0.00000000	      5.00000014
     12.07500000	    -53.89619392	      8.43640486	      4.23294778	     -0.36172889	      0.98906716	      0.04537759	     91.62508756	     -7.22983300	      7.55804215	     58.77513305	      1.02581959	    -12.94973066	    -10.69898256	      0.00000000	    129.56301264	    -10.01652123	     -6.84697660	    100.83050356	      1.75982427	      3.59783060	      1.89003973	      0.00000000	     -0.09302887	     -1.61218502	     -0.47086906	     -0.17276391	     -2.14420608	     -0.50029837	     -0.15283713	     -3.91986667	     -0.50029837	     -0.10632269	     -3.91986667	     -0.41201042	     -0.08638661	     -3.28756770	     -0.38258111	     -0.05315670	     -2.49727460	     -0.35315179	     -0.66449591	    -18.23735942	     -2.61883243	      0.00000000	      0.00000000	     -0.00000000	      0.00000000	      0.00000000	     64.52032021	     -6.35882705	    -10.73968986	     43.29197711	     45.08081764	      0.00000000	      5.00000014	     77.06681421	     -7.74967609	     13.34646203	     35.45011665	     52.99304512	      0.00000000	      5.00000014
     12.08300000	    -53.91797755	      7.91698281	      3.97999280	     -0.36259124	      0.98897315	      0.04533667	     92.22641254	     -6.87558719	      7.23521691	     60.82229062	      1.06154923	    -13.19736518	    -11.22609872	      0.00000000	    129.37571400	     -9.75899433	     -6.44266831	     99.26769177	      1.73254806	      3.50441478	      1.63969652	      0.00000000	     -0.09234947	     -1.53574129	     -0.42391829	     -0.17150221	     -2.04253592	     -0.45041318	     -0.15172095	     -3.73400137	     -0.45041318	     -0.10554621	     -3.73400137	     -0.37092850	     -0.08575572	     -3.13168364	     -0.34443361	     -0.05276849	     -2.37886326	     -0.31793872	     -0.65964305	    -17.37261262	     -2.35770635	      0.00000000	      0.00000000	     -0.00000000	      0.00000000	      0.00000000	     64.72693690	     -6.49700253	    -10.48111254	     43.38269441	     45.10589562	      0.00000000	      5.00000014	     76.95612421	     -7.59229930	     12.78576023	     35.58733306	     52.83561085	      0.00000000	      5.00000014
     12.09200000	    -53.94407918	      7.56350881	      3.56956882	     -0.36341203	      0.98883241	      0.04557436	     92.89232073	     -6.35343779	      7.22614951	     62.92181236	      1.09819280	    -13.02436594	    -11.06204884	      0.00000000	    129.07160686	     -9.69353675	     -6.01854709	     97.68243881	      1.70488018	      3.46993207	      1.47547633	      0.00000000	     -0.09177083	     -1.47864522	     -0.34356666	     -0.17042762	     -1.96659815	     -0.36503958	     -0.15077030	     -3.59517800	     -0.36503958	     -0.10488489	     -3.59517800	     -0.30062083	     -0.08521840	     -3.01525334	     -0.27914791	     -0.05243785	     -2.29042145	     -0.25767499	     -0.65550989	    -16.72673050	     -1.91081469	      0.00000000	      0.00000000	     -0.00000000	      0.00000000	      0.00000000	     64.89768932	     -6.55696630	    -10.44523710	     43.55535795	     45.10590119	      0.00000000	      5.00000014	     76.91260289	     -7.52603789	     12.62751666	     35.79239955	     52.63824142	      0.00000000	      5.00000014
     12.10000000	    -53.95834890	      7.18903173	      3.19891152	     -0.36409864	      0.98878127	      0.04579682	     93.57043134	     -5.86154379	      7.14287677	     65.04965002	      1.13533057	    -12.98041665	    -11.23344757	      0.00000000	    128.63628073	     -9.59610591	     -5.62590686	     95.99461100	      1.67542203	      3.33172688	      1.33248520	      0.00000000	     -0.09463559	     -1.41972785	     -0.27354191	     -0.17574775	     -1.88823804	     -0.29063828	     -0.15547681	     -3.45192630	     -0.29063828	     -0.10815901	     -3.45192630	     -0.23934917	     -0.08787861	     -2.89510903	     -0.22225280	     -0.05407477	     -2.19915844	     -0.20515643	     -0.67597254	    -16.06024539	     -1.52135805	      0.00000000	      0.00000000	     -0.00000000	      0.00000000	      0.00000000	     65.07022394	     -6.60493897	    -10.37109306	     43.70401821	     45.11075246	      0.00000000	      5.00000014	     76.86300623	     -7.43705322	     12.42812931	     35.97386042	     52.45027261	      0.00000000	      5.00000014
     12.10800000	    -54.04493287	      6.55587442	      3.12671028	     -0.36496063	      0.98893887	      0.04529138	     94.35163883	     -5.78649930	      6.34779278	     67.06180305	      1.17044927	    -14.55543041	    -13.24679373	      0.00000000	    128.18446774	     -9.05392294	     -5.25965019	     94.01709986	      1.64090795	      2.57088156	      0.42411260	      0.00000000	     -0.09334743	     -1.32182650	     -0.27540183	     -0.17335551	     -1.75802924	     -0.29261444	     -0.15336049	     -3.21388895	     -0.29261444	     -0.10668678	     -3.21388895	     -0.24097660	     -0.08668242	     -2.69546860	     -0.22376399	     -0.05333872	     -2.04750925	     -0.20655137	     -0.66677136	    -14.95276573	     -1.53170235	      0.00000000	      0.00000000	     -0.00000000	      0.00000000	      0.00000000	     65.40687155	     -6.79222071	     -9.62308503	     43.67119894	     45.20544318	      0.00000000	      5.00000014	     76.57463777	     -7.10991963	     10.73991940	     36.21168781	     52.25886123	      0.00000000	      5.00000014
     12.11700000	    -54.09606292	      6.23360123	      2.88158551	     -0.36556246	      0.98900274	      0.04529253	     95.12920118	     -5.49806592	      6.19444801	     69.17224469	      1.20728342	    -14.63883002	    -13.54468251	      0.00000000	    127.54656637	     -8.84318591	     -4.95157228	     92.09940794	      1.60743791	      2.07750326	      0.04372493	      0.00000000	     -0.09349815	     -1.26522692	     -0.24292440	     -0.17363542	     -1.68275180	     -0.25810718	     -0.15360811	     -3.07627272	     -0.25810718	     -0.10685904	     -3.07627272	     -0.21255885	     -0.08682238	     -2.58005073	     -0.19737608	     -0.05342484	     -1.95983649	     -0.18219330	     -0.66784795	    -14.31249991	     -1.35107266	      0.00000000	      0.00000000	     -0.00000000	      0.00000000	      0.00000000	     65.61157851	     -6.75245358	     -9.44344802	     43.75621895	     45.22771684	      0.00000000	      5.00000014	     76.45473976	     -7.03574284	     10.06852580	     36.40191864	     52.10900287	      0.00000000	      5.00000014
     12.12500000	    -54.11356140	      5.99912478	      2.41780073	     -0.36599210	      0.98901259	      0.04559107	     95.88934240	     -4.96596334	      6.17672494	     71.24385600	      1.24343986	    -14.64767492	    -13.72269361	      0.00000000	    126.82865338	     -8.84784331	     -4.52050311	     90.23581451	      1.57491207	      1.74132398	     -0.06789112	      0.00000000	     -0.09316851	     -1.21864062	     -0.16805647	     -0.17302325	     -1.62079203	     -0.17856000	     -0.15306655	     -2.96300280	     -0.17856000	     -0.10648230	     -2.96300280	     -0.14704941	     -0.08651628	     -2.48505195	     -0.13654588	     -0.05323649	     -1.88767432	     -0.12604235	     -0.66549338	    -13.78550643	     -0.93467968	      0.00000000	      0.00000000	     -0.00000000	      0.00000000	      0.00000000	     65.79315052	     -6.68799857	     -9.37274284	     43.83312081	     45.23651765	      0.00000000	      5.00000014	     76.38521696	     -7.07580631	      9.90087549	     36.50165509	     52.10337418	      0.00000000	      5.00000014
     12.13300000	    -54.13430965	      5.77447803	      2.03639921	     -0.36639282	      0.98912465	      0.04561593	     96.67336518	     -4.57743167	      6.10368075	     73.27237417	      1.27884418	    -14.63826438	    -13.92078073	      0.00000000	    126.02232234	     -8.79555781	     -4.18416448	     88.28296651	      1.54082844	      1.28077032	     -0.21989184	      0.00000000	     -0.09597885	     -1.16907787	     -0.11279891	     -0.17824232	     -1.55487357	     -0.11984884	     -0.15768365	     -2.84249594	     -0.11984884	     -0.10969423	     -2.84249594	     -0.09869904	     -0.08912596	     -2.38398360	     -0.09164911	     -0.05484232	     -1.81090162	     -0.08459918	     -0.68556733	    -13.22484271	     -0.62735368	      0.00000000	      0.00000000	     -0.00000000	      0.00000000	      0.00000000	     66.00298487	     -6.60217050	     -9.25374760	     43.88581938	     45.25073230	      0.00000000	      5.00000014	     76.29728686	     -7.15075548	      9.66001235	     36.62878508	     52.08508839	      0.00000000	      5.00000014
